<?xml version='1.0' encoding='utf-8'?>
<svg xmlns="http://www.w3.org/2000/svg" width="265mm" height="218mm" version="1.1" style="shape-rendering:geometricPrecision; text-rendering:geometricPrecision; image-rendering:optimizeQuality; fill-rule:evenodd; clip-rule:evenodd" viewBox="0 0 26500 21800">
  <defs>
    <!-- Define un gradiente lineal -->
    <linearGradient id="gradient" x1="25%" y1="50%" x2="40%" y2="0%">
      <stop offset="0%" style="stop-color:#8e2de2;stop-opacity:1" />
      <stop offset="100%" style="stop-color:#00c6ff;stop-opacity:1" />
    </linearGradient>

    <!-- Opcional: elimina la clase para evitar conflictos -->
    <style type="text/css">
      .fil0 {fill:url(#gradient);}
    </style>
  </defs>
  <g id="Warstwa_x0020_1">
    <metadata id="CorelCorpID_0Corel-Layer"/> <path class="fil0" d="M11948.46 16451.99c102.89,-17.56 205.79,-264.65 308.68,-553.42 -96.05,-141.93 -224.38,-206.42 -379.24,-207.26 -212.89,199.57 -344.85,366.36 -376.34,492.41 -11.07,44.31 -12.68,88.06 16.92,100.78 38.97,16.76 106.65,6.4 183.27,18.22 83.98,12.96 178.3,51.3 246.71,149.27zm-145.52 661.46c39.07,24.3 65,-1.11 82.47,-58.4 34.14,-111.9 16.24,-345.46 41,-567.78 -92.14,-125.98 -238.53,-161.54 -401.29,-169.78 -173.13,236.73 -247.27,415.41 -234.09,542.89 17.98,173.86 317.53,-100.33 511.91,253.07zm952.5 -1715.37c-81.2,-160.18 -220.84,-252.17 -407.9,-288.84 -262.31,167.82 -447.59,323.06 -483.4,452.82 -36.07,130.7 98.58,66.32 226.88,122.11 68.44,29.76 138.86,80.55 190.38,179.14 137.31,52.12 306.74,-217.09 474.04,-465.23zm659.26 -421.13c-101.35,-181.11 -276.3,-256.37 -471.84,-302.07 -182.12,44.88 -333.46,119.99 -425.41,185.33 -98.02,69.65 -198.42,165.29 -134.63,220.37 492.25,95.55 301.38,379.45 503.19,316.8 156.55,-48.61 291.26,-215.05 528.69,-420.43zm630.49 -3011.75c-141.6,15.35 -257.28,-280.24 -374.82,-553.43 98.58,-120.25 238.02,-197.24 436.56,-211.66 247.62,217.03 402.78,397.61 419.07,529.47 12.12,98.05 -86.71,67.52 -203.07,75.71 -94.7,6.67 -199.55,43.48 -277.74,159.91zm240.33 632.82c119.9,-111.63 269.62,-141.95 454.21,-77.17 90.61,-160.19 -115.43,-454.66 -255.77,-665.87 -160.24,-5.59 -295.44,46.02 -414.51,134.49 55.02,248.2 82.3,570.34 216.07,608.55zm3.33 39.69c99.99,-96.36 242.49,-132.96 436.56,-97.02 76.24,156.26 136.72,375 140.63,507.11 1.78,60.35 -13.97,105.61 -59.05,125.69 -213.4,-66.11 -395.16,-57.41 -511.53,105.84 -119.95,10.42 -31.86,-375.47 -6.61,-641.62zm-70.55 1219.29c190.83,-128.59 300.06,-120.92 380.23,-110.83 129.42,16.29 156.28,109.56 191.48,-1.76 35.23,-111.4 37.54,-284.83 -3.95,-545.57 -181.58,-60.85 -338.79,-22.58 -476.26,95.91 -3.11,187.85 -110.98,338.55 -127.67,454.56 -9.4,65.34 -2.12,107.79 36.17,107.69zm-1123.34 -2984.29c175.23,256.03 350.15,522.63 531.37,551.22 179.01,-364.11 534.95,-186.34 496.08,-320.34 -36.8,-126.9 -227.96,-274.37 -491.67,-431.52 -210.7,2.71 -389.78,68.61 -535.78,200.64zm-593.97 -474.72c119.45,-103 292.87,-157.9 535.79,-160.96 308.9,148.93 635.28,295.85 590.9,396.88 -727.65,-4.38 -461.92,316.36 -666.78,238.28 -164.08,-62.53 -309.29,-213.54 -459.91,-474.2zm-253.38 -1724.27c-121.36,-68.09 -265.24,-68.61 -427.75,-13.23 -84.24,270.86 -87.72,453.86 -37.43,568.84 75.05,171.59 269.99,-174.56 575.42,79.4 139.26,6.99 -28.34,-367.25 -110.24,-635.01zm15.48 -30.88c92.1,-45.88 100.39,-332.14 103.63,-632.8 -132.9,-83.12 -274.98,-105.05 -425.55,-70.56 -144.94,280.36 -219.75,502.55 -184.73,632.68 43.14,160.31 267.64,-118.97 506.65,70.68zm-70.52 -1400.17c186.39,-27.09 350.13,3.56 471.85,141.11 -78.47,330.92 -161.72,614.03 -275.61,590.91 -75.05,-71.17 -154.27,-94.66 -226.92,-99.72 -141.74,-9.88 -256.28,85.61 -270.3,-36.83 -14.57,-127.2 89.42,-329 300.98,-595.47zm956.97 -489.49c-154.38,296.48 -311.51,641.77 -447.59,615.16 -100.04,-152 -267.43,-204.43 -502.71,-156.55 -127.42,-72.69 236.46,-517.86 395.4,-582.48 118.12,-48.02 469.09,14.03 554.9,123.87zm498.44 -568.91c-144.04,284.08 -220.45,441.89 -344.83,526.72 -140.67,95.95 -113.04,-31.61 -256.52,-99.98 -80.08,-38.16 -237.73,-73.32 -459.2,-10.02 -76.74,-114.43 247.59,-307.67 513.74,-489.48 205.79,-41.07 393.95,-33.19 546.81,72.76zm421.17 -657.08c-111.03,392.94 -235.87,650.03 -388.06,637.21 -309.57,-267.68 -573.6,-14.7 -595.38,-116.85 -24.93,-116.97 160.8,-309.31 485.13,-551.23 196.13,-55.22 366.88,-55.03 498.31,30.87zm-518.15 -61.73c-82.57,-110.09 59.44,-325.43 171.98,-526.96 152.41,-83.12 306.96,-112.39 465.23,-48.51 53.25,166.01 80.08,388.65 14.12,514.21 -20.41,38.85 -52.88,69.89 -102.31,89.93 -140.96,-116.32 -331.64,-106.4 -549.02,-28.67zm-1553.3 4422.85c182.36,-118.49 467.38,-90.24 643.84,8.82 33.91,16.41 129.54,18.11 103.52,-55.88 -37.06,-105.37 -350.18,-312.31 -407.8,-521.8 -165.7,-94.75 -327.46,-77.27 -487.28,-4.41 26.76,285.65 48.96,590.58 147.72,573.27zm1027.47 328.53c70.92,-43.35 -83.2,-215.83 -167.69,-262.59 -69.19,-38.3 -182.57,8.48 -283.02,-40.45 -197.75,-96.34 -389.96,-113.74 -554.72,-5.64 88.93,164.07 175.66,335.17 287.29,427.41 49.27,40.72 103.4,66.08 164.71,68.69 110.37,-185.96 301.93,-236.64 553.43,-187.42zm-1280.02 8166.81c-120.59,-86.26 -226.32,-76.97 -326.32,-30.86 17.56,212.36 37.43,418.68 113,477.76 39.43,30.82 74.35,-41.9 171.43,-47.81 54.47,-3.31 104.26,7.58 142.82,22.26 43.18,16.45 72.34,35.69 78.29,6.09 8.42,-41.93 -37.85,-106.49 -89.67,-212.04 -28.83,-58.74 -62.16,-139.93 -89.55,-215.4zm4.42 -28.67c-203.08,-168.4 -335.54,42.36 -410.82,-64.19 -65.64,-92.9 -18.88,-198.68 -25.75,-476.01 159.59,-50.14 304.95,-51.32 414.52,66.15 36.03,106.36 58.7,205.88 59.81,294.38 0.84,66.75 3.76,166.93 -37.76,179.67zm-162.48 493.95c89.53,190.58 174.15,393.38 350.58,368.22 41.99,-38.24 125.62,-48.23 200.85,-35.43 65.13,11.08 126.54,46.08 143.48,22.47 6.79,-9.46 17.28,-33.82 -3.67,-62.01 -53.14,-71.51 -121.22,-117.94 -177.02,-162.91 -75.42,-60.78 -145.1,-104.78 -209.31,-132.88 -119.91,-52.48 -220.87,-49.63 -304.91,2.54zm652.64 749.66c66.51,-112.01 177.49,-152.57 326.32,-132.29 45.3,-49.45 -120.06,-136.61 -194.92,-175.7 -106.89,-55.82 -223.45,-104.43 -364.01,-82.27 -71.43,11.26 -57.76,55.47 -23.88,118.86 23.14,43.31 53.41,102.67 81.67,138.74 33.45,42.71 85.27,136.3 174.82,132.66zm4928.1 -13623.94c1827.82,817.77 3733.44,1393.57 5119.69,3585.11 532.1,-554.51 1476.49,-340.67 2526.78,70.55 -2827.17,-2297.14 -5290.2,-3183.21 -7646.47,-3655.66zm-1045.11 -79.38c1556.28,863.63 3034.85,1792.01 3311.71,3721.82 295.98,-853.41 957.83,-1080.99 2147.54,-405.7 -1591.91,-1829.06 -3467.37,-2757.52 -5459.25,-3316.12zm269 4502.34c756.06,-711.04 1645.62,-1098.78 2848.68,-727.61 -626.21,-1558.93 -1766.78,-2844.94 -3545.42,-3792.37 1143.13,1298.75 1718.68,2727.04 696.74,4519.98zm-2786.95 -101.43c292.07,-91.7 684.65,-86.36 938.96,5.08 632.21,227.3 682.65,672.46 1715.69,1406.04 -200.52,-257.07 -334.45,-512.83 -417.98,-767.58 -348.22,-1061.96 576.1,-704.27 409.16,-3157.08 -193.87,458.66 -472.02,851.12 -809.11,1197.24 -507.47,521.08 -1280.83,646.17 -1836.72,1316.3zm-4277.49 1005.35c-1443.42,-1546.82 -1285.69,-3059.9 -493.89,-4559.66 -1482.91,1353.27 -2274.19,2900.67 -2416.53,4630.22 897.85,-577.71 1871.45,-574.7 2910.42,-70.56zm476.25 1225.9c702.18,-581.62 732.64,-1408.71 1286.37,-1781.16 248.3,-167 536.21,-263.89 883.21,-256.13 -717.36,-508.72 -1473.96,-438.76 -2117.49,-818.74 -404.64,-238.92 -776.79,-533.72 -1101.61,-909.87 126.96,656.63 298.5,1086.74 474.94,1395.5 411.21,719.61 805.12,947.95 768.17,1681.82 -13.83,274.65 -42.27,391.4 -193.59,688.58zm-1402.3 -5626.81c-1969.44,1262.55 -3619.85,2714.62 -4400.9,4683.13 839.07,-839.54 1589.27,-1089.18 2169.58,-211.66 -133.51,-1943.28 904.27,-3282.02 2231.32,-4471.47zm-7399.52 5900.22c777.89,-542.7 1548.65,-1185.09 2398.89,-714.38 641.16,-2070.68 2194.45,-3539.36 4012.86,-4833.06 -2147.73,1000.01 -4287.54,2642.15 -6411.75,5547.44zm11261.29 6806.89c64.02,-84.06 153.46,-138.68 308.68,-116.86 146.73,65.34 335.36,110.86 358.29,234.82 -71.09,12.36 -92.6,47.06 -104.73,85.99 -177.37,52.3 -369.93,-77.34 -562.24,-203.95zm1193.94 251.36c-223.23,110.93 -414.01,57.49 -593.11,-55.13 -10.97,-26.02 25.41,-66.32 104.73,-63.94 208.86,31.14 406.68,64.3 488.38,119.07zm250.26 -14933.58c169.86,-147.19 340.9,-179.51 513.73,-38.59 50.3,-81.28 71.86,-154.36 74.22,-221.93 4.44,-127.18 -41.47,-268 -127.13,-341.41 -75.68,-0.07 -155.99,30.41 -215.68,57.54 -71.89,32.67 -153.21,85.23 -201.78,149.53 -40.95,54.23 -53.56,117.5 -68.91,177.85 -20.12,79.14 -14.73,157.11 25.55,217.01zm276.72 -955.82c58.66,-3.69 150.46,124.06 180.21,195.49 17.08,41 63.26,134.49 2.8,133.03 -164.93,-21.36 -312.8,42.69 -436.57,227.11 -84.8,-130.84 -104.22,-236.92 -71.08,-323.08 39.79,-103.42 155.37,-178.16 324.64,-232.55zm-1710.96 -1070.48c-26.32,79.8 -28.06,153.93 22.05,216.07 48.91,-81.93 29.03,-151.76 -22.05,-216.07zm-183.02 273.4c204.49,14.54 337.19,-54.23 359.39,-251.36 186.53,-68.61 272.09,-201.13 282.23,-381.44 -18.15,214.96 -198.12,254.17 -435.14,323.25 -101.82,29.68 -201.91,190.26 -206.48,309.55zm-58.34 -895.04c71.9,-167.36 102.87,-331.92 182.08,-480.1 138.98,-260 565.24,-143.7 792.94,-328.46 136.03,-110.38 50.93,-546.6 208.16,-629.15 279.5,-146.74 620.44,-5.18 946.73,-319.57 -181.91,347.84 -665.71,215.88 -923.73,391.68 -140.78,95.93 -24.23,462.78 -151.23,574.97 -198.11,175.02 -628.66,106.52 -782.09,316.21 -108.77,148.66 -89.41,409.66 -272.86,474.42zm2570.29 279.73c-356.41,8.71 -597.56,146.36 -657.05,487.28 -0.13,-134.46 30.07,-250.71 105.09,-340.08 -243.84,49.52 -475.27,153.64 -707.46,254.35 192.78,-127.15 434.83,-227.12 728.71,-298.76 -235.62,16.91 -520.16,124.33 -814.7,250.25 149.05,-90.18 319.46,-158.45 502.69,-217.24 138.95,-44.59 287.82,-80.57 448.67,-106.16 5.58,-2.59 11.24,-5.12 17.02,-7.59 -329.16,1.39 -667.35,141.55 -1005.42,280.02 257.82,-147.56 584.57,-262.15 882.49,-309.17 164.74,-25.99 332.23,-38.66 499.96,7.1zm-1181.81 1014.24c27.19,-149.74 113.19,-266.24 275.61,-339.55 -332.37,-25.59 -503.77,86.34 -672.49,187.42 163.28,-64.22 327.06,-139.81 487.28,-136.7 -2.92,3.8 -5.74,7.62 -8.48,11.44 -167.54,28.75 -296.19,79.53 -386.69,151.96 118.13,-53.58 236.24,-93.62 354.36,-98.77 -36.97,72.96 -46.96,148.26 -49.59,224.2zm-280.01 -1258.95c-71.35,16.2 -134.45,55.07 -194.03,103.62 -7.69,-92.06 39.73,-180.42 131.2,-259.58 108.65,-94.01 308.16,-82.49 529.72,-83.74 217.31,-1.22 456.05,-15.11 634.1,-119.01 189.16,-110.39 341.1,-281.14 409.34,-545.29 322.74,97.75 599.24,49.17 793.66,-74.47 161.12,-102.46 293.85,-264.59 302.16,-562.74 54.86,294.25 -106.56,464.37 -246.84,576.43 -192.61,153.88 -485.87,223.01 -820.31,126.92 -93.19,271.72 -233.9,427.82 -379.35,507.94 -314.09,173.02 -653.69,148.71 -889.03,149.39 -110.59,0.32 -227.4,-28.01 -266.33,81.83 -15.57,43.93 -2.64,45.78 -4.29,98.7zm820.21 -2268.81c212.42,67.3 230.73,229.11 208.45,336.03 -22.61,108.47 -157.14,237.39 -333.91,283.41 -176.36,45.92 -394.82,9 -603.64,111.82 -84.53,41.61 -143.56,144.21 -165.1,263.04 -27.27,150.38 -11.81,324.17 -102.85,403.97 -133.33,116.89 -335.91,110.79 -505.91,146.41 -140.17,29.38 -257.53,100.21 -301.84,177.5 -110.64,192.98 -186.81,399.23 -214.86,623.8 87.03,-23.99 158.93,-71.68 227.77,-126.87 119.62,-95.89 121.61,-383.7 274.94,-371.43 -65.81,75.3 -100.3,217.2 -119.07,392.47 61.01,-59.12 145.52,-89.93 225.06,-136.2 106.03,-61.68 79.05,-356.84 172.66,-429.22 137.31,-106.15 410.26,-9.28 521.52,-151.28 94.4,-120.49 -41.94,-430.16 135.94,-584.62 125.18,-108.7 408.28,-90.91 591.45,-161.67 165.77,-64.03 236.98,-216.18 268.17,-316.37 52.42,-168.37 21.75,-453.23 -278.78,-460.79zm-1222.59 3490.29c387.63,-227.11 494.69,-444.98 274.51,-607.45 163.19,29.18 230.13,149.84 187.69,248.49 -44.35,103.12 -187.76,238.59 -462.2,358.96zm985.61 191.8c210.27,80.52 299.04,155.05 271.2,223.8 -148.22,4.02 -263.01,81.26 -349.48,220.49 -26.56,36.15 -62.27,25.33 -104.33,-18.09 -34.87,-36.01 -89.57,-88.94 -116.15,-167.12 52.69,-145.8 157.88,-225.02 298.76,-259.08zm-185.21 40.79c51.81,-39.57 103.63,-60 155.44,-67.25 -43.48,-58.08 -96.16,-94.06 -154.34,-116.85 -12.1,60.07 -15.46,121.11 -1.1,184.1zm1373.06 -1149.84c-148.03,-102.29 -322.74,-141.38 -515.36,-138.09 -430.04,7.36 -949.35,226.05 -1460.2,424.72 387.48,287.84 -48.48,512.85 -445.39,740.84 192.25,-78.42 359.09,-89.79 503.71,-42.63 158.77,51.77 46.04,242.45 400.29,355.72 29.95,-58.45 69.25,-112.76 112.45,-165.36 -124.14,-178.01 -376.89,-238.89 -665.87,-266.79 163.99,-31.55 377.37,-51.36 619.57,114.65 17.88,-215.14 147.5,-352.99 403.49,-403.49 -177.16,-114.18 -436.36,-32.04 -696.74,52.92 294.87,-167.39 582.67,-234.61 859.9,-152.14 -47.78,-444.34 285.15,-587.54 884.15,-520.35zm-3572.14 14333.76c-101.53,373.67 -177.94,641.96 -68.3,799.66 73.74,106.08 130.34,-176.51 480.61,102.12 40.11,12.92 66.45,-104.67 76.23,-180.63 20.11,-156.25 -64.02,-359.84 -40.95,-544.76 -113.08,-150.75 -269.81,-190.33 -447.59,-176.39zm2877.26 -3062.49c140.66,-110.1 301.78,-143.46 489.49,-77.18 0.01,202.72 -49.02,373.22 -153.87,507.02 -96.92,123.69 -285.65,335.1 -439.25,273.51 -62.08,-95.07 -128.48,-152.9 -192.41,-188.56 -178.8,-99.72 -338.4,-26.17 -330.81,-109.15 6.35,-69.34 98.43,-131.34 241.14,-206.94 105.58,-55.94 258.74,-95.09 385.71,-198.7zm-3140.94 3842.13c-47.04,-803.64 133.66,-1485.57 482.09,-2054.23 366.77,-598.61 956.36,-1029.84 1693.24,-1429.22 -494.33,195.41 -1059.22,137.26 -1483,586.23 134.96,2.3 218.02,22.9 258.89,58.34 158.71,137.66 -605.15,389.2 -862.5,884.75 92.75,-28.24 151.56,-27.58 183.7,-4.2 150.13,109.17 -519.24,759.91 -552.22,1181.61 76.6,-72.52 134.24,-103.86 177.35,-103.65 168.87,0.86 -139,561.41 102.45,880.37zm547.07 -14683.67c-53.29,202.09 -123.08,418.68 -364.26,475.78 88.88,30.56 140.17,78.47 152.62,144.3 202.87,-78.76 204.38,-348.05 211.64,-620.08zm1098.77 16027.4c218.13,117.68 473.92,199.25 733.75,181.07 292.34,-20.46 577.26,25.55 803.05,134.23 -84.77,35.22 -96.43,87.19 -58.34,150.54 37.83,62.91 144.85,121.69 298.58,165.15 132.91,37.58 308.02,56.52 416.4,143.98 88.4,71.33 151.52,169.22 161.37,309.83 -135.05,-23.14 -151.76,38.76 -117.32,139.8 105.04,308.29 305,237.35 291.29,627.46 -4.98,141.65 -36.23,291.58 -74.75,372.66 -123.06,-303.02 -199.88,-324.7 -252.36,-198.45 89.8,403.7 -89.88,565.34 -347.37,657.07 124.88,-107.2 161.48,-171.64 139.7,-207.75 -19.3,-31.98 -87.88,-33.88 -152.62,4.63 -75.65,45 -156.6,136.36 -306.89,164.6 -129.68,24.36 -256.7,-15.19 -469.53,-122.44 906.44,196.98 1185.57,-554.38 1125.54,-890.56 -42.75,-239.47 -238.11,-642.06 -613.44,-911.59 -146.16,-104.95 -350.28,-204.79 -574.96,-280.2 -368.75,-123.77 -794.99,-219.18 -1002.1,-440.03zm226.27 -4433.78c163.48,26.94 265.6,66.49 330.44,109.83 202.5,135.33 129.51,315.1 330.69,228.21 133.25,-57.55 249.88,-136.71 481.33,-373.68 -102,-136.51 -290.93,-205.38 -498.96,-259.38 -354.59,92.52 -718.58,184.62 -643.5,295.02zm856.6 6224.59c-243.07,-289.48 -559.05,-384.02 -902.2,-410.81 -271.47,-21.19 -567.64,9.47 -916.06,200.4 226.09,-15.25 417.86,0.66 586.83,78.72 317.02,146.44 278.63,621.17 786.79,758.95 -213.16,-208.82 -313.01,-439.74 -309.66,-690.78 293.01,-31.98 556.31,-26 754.3,63.52zm-2517.94 -16415.55c19.41,224.95 184.16,389.34 437.04,517 -245.75,-187.33 -327.7,-357.97 -239.1,-520.22 12.12,-4.28 24.67,-9.13 37.65,-14.55l1.92 0.52c75.55,304.76 330.59,479.24 744.14,538.66 -383.18,-136.28 -600.6,-302.6 -550.18,-517.44 73.62,-7.99 131.23,-38.6 175.14,-89.7 107.8,-125.44 -98.68,-267.11 82.78,-357.36 499.25,-330.19 1130.67,-116.61 1362.52,127.72 187.39,197.47 296.35,494.53 215.09,850.28 -42.01,183.95 -152.69,378.79 -292.23,593.86 -234.65,361.68 -644.28,716.21 -964.49,1159.68 -341.06,472.35 -588.18,1039.15 -665.42,1602.31 -75.83,552.84 -17.98,1141.66 265.56,1757.97 -66.72,-64.2 -102.31,-135.71 -119.06,-211.67 -241.44,-669.98 -276.16,-1295.23 -138.31,-1883.12 158.95,-677.88 560.6,-1301.7 1112.86,-1896.02 -266.76,226.75 -565.65,393.3 -796.46,556.01 -226.26,159.5 -361.58,352.23 -398.58,519.97 153.71,-56.45 238.82,-60.93 275.92,-29.1 42.65,36.58 12.89,83.61 -32.6,154.8 -65.81,102.97 -181.44,251.75 -299.63,452.48 -83.54,141.86 -187.14,311.92 -203.87,515.43 96.39,-87.8 156.57,-108.98 191.13,-83.35 142.29,105.49 -259.41,1004.1 -133.8,1313.66 128.15,-272.49 236.38,-271.58 299.83,343.97 -2620.1,-211.41 -3266.9,-1523.08 -2006.43,-3898.21 -3293.22,1362.76 -5460.09,2943.34 -7010.48,4423.25 -1778.03,1697.22 -2582.85,3401.24 -2624.8,5110.61 156.35,-400.52 472.26,-1302.16 1016.12,-2056.49 416.08,-577.09 971.13,-959.45 1497.02,-1128.52 318.97,-102.55 610.53,-199.12 901.82,-5.1 253.18,168.64 227.99,505.77 287.47,840.12 47.99,269.76 163.46,542.36 429.49,687.51 -574.73,-1016.3 13.07,-1793.7 420.92,-2215.89 250.8,-259.62 585.2,-446.71 893.92,-393.72 247.77,42.53 395.31,288.15 413.89,465.44 27.73,264.56 -101.57,565.14 99,842.15 100.02,138.14 243.58,250 456.52,309.83 -191.87,-241.25 -276.01,-437.81 -255.72,-595.65 98.14,-763.59 1397,-1249.84 2212.3,-1013.38 799.01,231.73 1378.33,984.13 877.43,1790.27 -177.73,286.04 -594.36,563.38 -1255.32,855.05 551.09,-146.5 1028.16,-387.77 1463.34,-682.61 550.23,-372.77 1004.24,-951.61 1450.32,-1497.75 423.3,-518.23 913.68,-969.37 1469.62,-1029.93 236.28,308.37 419.32,450.1 520.35,335.14 185.55,273.28 361.92,639.81 582.11,560.03 100.74,247.95 200.06,507.45 330.73,515.94 69.61,279.64 138.2,563.27 273.4,586.49 -28.05,231.45 -65.55,466.18 8.82,661.46 -17.68,136.98 -64.98,251.09 -123.77,375.48 -59.44,125.77 -131.8,261.96 -404.58,415.81 -497.7,280.73 -1011.29,541.56 -1395.92,895.17 -429.14,394.52 -748.25,849.78 -907.16,1358.23 -85.23,272.74 -162.5,627.49 -174.72,983.65 -14.42,419.94 53.79,845.36 193.24,1190.77 51.56,127.71 95.75,262.08 199.04,331.64 114.29,154.34 203.22,469.63 382.55,456.41 79.38,138.54 278.92,388.42 367.12,332.93 318.63,221.54 519.58,273.45 611.84,168.67 64.83,61.58 159.01,103.21 268.02,133.75 152.43,42.72 338.34,4.26 509.26,27.97 203.28,28.2 387.24,119.71 494.01,196.24 316.92,227.16 420.07,511.77 407.76,698.9 -11.85,180.29 -128.41,329.29 -257.77,402.24 -160.75,90.66 -373.88,124.59 -505,94.2 -73.32,-17 -154.88,-52.13 -238.28,-105.68 -123.01,-79 -245.63,-352.47 -360.5,-358.42 109.66,612.06 722.84,784.33 1185.2,619.77 292.28,-104.02 524.33,-342.68 530.77,-689.91 7.94,-427.62 -359.93,-892.93 -869.68,-1160.33 -248.14,-130.16 -549.52,-197.5 -825.91,-293.49 -262.16,-91.05 -490.91,-223.17 -696,-419.71 -411.81,-394.65 -609.62,-942.44 -519.42,-1738.45 103.92,-196.81 131.76,-427.45 149.93,-657.05 162.21,-105.77 262.98,-318.4 357.19,-542.4 128.75,-17.48 275.47,-214.57 427.75,-467.43 145.89,121.26 410.02,-144.5 668.07,-454.2 120.94,152.23 361.82,-25.6 676.89,-343.96 675.96,-236.48 890.29,-1447.48 623.85,-2487.05 -94.2,-367.54 -318.89,-841.65 -687.62,-1284.05 -126.99,-152.37 -273.69,-300.98 -443.35,-440.19 54.76,17.27 107.3,46.66 154.34,88.19 514.42,479.4 873.74,1038.55 1035.54,1695.35 54.76,222.27 84.63,456.99 85.65,706.13 1.24,300.39 -17.41,628.38 -129,967.56 303.78,-225.19 99.33,-802.88 246.22,-851.29 43.95,-14.48 101.98,22.16 181.53,136.91 55.99,-369.48 -487.58,-1157.15 -341.07,-1265.34 31.98,-23.62 92.24,-13.18 191.14,43.85 -36.96,-150.71 -130.41,-255.32 -204.56,-365.7 -171.59,-255.41 -417.58,-447.47 -499.98,-563.91 -51.55,-72.85 -0.97,-108.66 56.18,-126.82 258.14,-82.03 841.08,467.98 1628.37,916.51 766.61,436.75 1613.24,577.56 2212.63,572.07 -2735.8,-249.67 -1813.51,-2180.5 -881.32,-2551.26 819.01,-325.74 2681.6,-130.68 2116.05,1153.38 234.15,-151.27 329.36,-338.08 385.93,-525.02 76.65,-253.3 -86.32,-454.86 -120.68,-658.05 -75.31,-445.47 298.9,-851.16 767.02,-700.6 196.85,63.31 646.48,240.46 999.42,590.93 352.44,349.99 608.48,872.85 420.11,1627.87 166,-136.37 231.41,-345.36 257.07,-573.97 52.59,-468.58 -273.37,-894.5 180.43,-1197.19 224.31,-149.62 567.88,-172.02 937.77,-119.48 453.59,64.44 956.41,234.61 1372.32,557.44 559.23,434.07 1125.69,1101.2 1684.19,1857.96 -497.25,-1649.92 -1715.15,-3016.95 -3625.23,-4112.24 -1963.92,-1126.15 -5179.95,-2278.14 -8056.14,-2528.81 935.18,1165.85 1274.76,2149.71 910.34,2918.44 -330.29,696.72 -1238.89,1216.75 -2806.52,1535.39 -196.23,-19.84 -238.13,-291.05 -357.19,-436.57 46.23,-158.4 -8.88,-396.77 -74.97,-643.82 103.67,-84.04 144.76,-324.53 154.34,-643.82 86.35,-30.26 167.95,-200.51 242.54,-577.67 212.97,52.2 338.27,-302.58 467.43,-639.41 297.17,126.72 871.59,-710.03 1128.27,-1535.45 155.48,-500 99.76,-1051.74 24.98,-1222.85 -126.37,-289.12 -332.29,-565.92 -686.93,-749.64 9.92,-19.48 25.37,-24.63 49.62,-28.67 235.83,122.19 393.55,269.02 516.85,434.58 133.52,179.29 223.49,382.7 240.31,657.7 19.56,319.97 -1.63,625.05 -76.45,917.61 -124.81,488.12 -368.64,942.4 -753.79,1343.92 -218.84,228.14 -246.31,189.75 -393.71,255.54 426.77,83.42 599.94,-529.19 719.43,-399.83 30.49,33.02 48.66,97.4 50.72,202.66 278.4,-294.78 272.6,-1225.47 456.37,-1179.72 39.35,9.79 81.22,54.61 126.32,144.01 173.26,-514.57 -184.58,-1262.93 25.61,-1228.77 54.12,8.8 127.33,59.54 223.98,161.9 10.36,-278.62 -83,-450.73 -207.47,-603.07 51.51,14.75 101.41,34.59 148.65,67.74 74.33,52.17 141.37,125.8 197.59,231.15 -61.71,-339.56 -234.47,-590.15 -549.01,-712.16 81.57,-123.47 271.2,-4.42 368.21,46.29 -80.64,-116.55 -228.41,-210.32 -344.76,-283.85 -143.7,-90.8 -289.97,-144.02 -440.17,-139.48 -19.52,-47.74 -33.24,-91.61 -41.72,-131.99 74.59,-50.74 185.55,-53 313.87,-32.1 -104.01,-56.37 -206.25,-111.16 -317.59,-124.7 58.15,-267.54 492.19,-284.48 1064.09,-209.51 -485.16,-483.96 -1135.95,-350.21 -1838.86,-22.05 129.17,-91.27 191.28,-198.3 220.49,-313.09 508.23,-105.38 1041.5,-176.45 1159.75,-815.8 717.79,55.6 990.63,-221.59 1068.45,-507.03 41.56,-152.44 11.85,-626.57 -279.1,-626.27 308.49,289.61 161.43,591.23 25.23,737.66 -148.07,159.19 -484.78,317.78 -916,153.11 -118.28,392.19 -379.42,542.09 -660.49,609.83 -369.44,89.05 -757.9,11.94 -932.38,205.15 -103.06,114.12 -159.52,229.22 -144.56,353.59 177.12,-24.25 367.48,-211.66 485.07,-145.52 -142.67,-7.15 -226.59,172.73 -374.4,222.4 -59.78,20.08 -125.69,33.67 -200.59,37.7 -5.7,-161.66 55.85,-323.33 138.42,-484.99 -153.61,87.27 -450.13,76.45 -628.44,216.52 -443.04,122.42 -873.53,248.24 -698.88,537.54 -74.13,58.18 -96.46,144.62 -105.84,238.13 -128.82,6.66 -226.9,58.03 -291.04,158.75 -151.84,30.51 -236.52,75.61 -285.48,125.81 -180.78,-72.33 -287.09,-212.97 -364.16,-380.38 49.69,244.79 118.15,463.19 294.11,530.29 -8.94,48.65 -12.85,93.73 -38.58,127.14 -80.72,104.81 -105.67,175.77 -72.87,211.61 19.32,21.1 58.89,40.4 118.9,48.64 20.04,97.52 63.88,189.25 184.85,262.16 -78.57,-83.46 -105.16,-159.1 -66.14,-224.9 8.02,49.24 41.23,94.06 99.22,134.5 -32.86,-57.27 -39.9,-108.09 -2.21,-147.73 -4.33,47.92 18.29,88.8 81.58,119.07 -27.41,-39.95 -38.71,-82.04 -22.05,-127.89 11.68,50.07 50.05,85.92 105.84,112.45 -35.07,-46.3 -45.04,-92.59 -33.08,-138.9 24.13,42.65 59.62,83.04 127.89,116.85 -31.5,-67.76 -34.64,-129.2 -13.23,-185.21 32.42,89.02 109.41,160.88 218.28,220.49 -60.3,-65.8 -87.83,-138.35 -87.2,-216.74 122.26,70.06 131.2,-143.71 219.55,-199.21 130.1,10.56 266.81,-84.02 412.32,-277.81 97.16,114.01 226.93,50.61 377.02,-123.47 -21.48,63.03 -38.03,131 -41.88,211.66 -269.67,175.5 -602.86,311.89 -727.14,506.71 -49.97,78.32 -71.52,162.9 -53.39,256.18 -87.47,-40.41 -149.27,-96.22 -207.25,-154.34 19.47,66.51 72.02,118.71 124.57,176.39 -65.37,-12.63 -119.67,-35.72 -146.62,-74.97 1.14,30.86 17.23,61.73 50.72,92.6 -66.08,-25.49 -103.7,-62.67 -116.87,-105.83 -8.81,40.05 -7.42,77.55 30.87,105.83 -80.85,-15.37 -130.83,-69.84 -167.57,-141.11 5.95,52.76 13.16,103.05 57.33,138.9 -25.72,82.66 -17.58,140.72 20.17,169.92z"/> </g> </svg>