<svg version="1.1" id="Layer_1" xmlns="http://www.w3.org/2000/svg" xmlns:xlink="http://www.w3.org/1999/xlink" x="0px" y="0px"
	 width="100%" viewBox="0 0 608 251" enable-background="new 0 0 608 251" xml:space="preserve">
<path fill="#FEFEFE" opacity="1.000000" stroke="none" 
	d="
M423.000000,252.000000 
	C282.000031,252.000000 141.500031,252.000000 1.000038,252.000000 
	C1.000025,168.333359 1.000025,84.666718 1.000013,1.000060 
	C203.666611,1.000040 406.333221,1.000040 608.999878,1.000020 
	C608.999878,84.666603 608.999878,168.333206 608.999939,251.999908 
	C547.166687,252.000000 485.333344,252.000000 423.000000,252.000000 
M324.299744,194.406998 
	C336.150330,197.202789 347.184631,196.415024 356.743042,187.333084 
	C353.588196,186.027359 350.893188,184.911972 347.977875,183.705414 
	C362.175934,176.459442 370.542267,163.358521 369.150024,150.730133 
	C366.787018,151.474838 364.432678,152.216812 362.936371,152.688385 
	C363.999939,143.201172 365.048737,133.845856 366.097504,124.490532 
	C365.500275,124.358734 364.903046,124.226936 364.305817,124.095139 
	C362.905762,126.116631 361.505707,128.138123 359.410614,131.163177 
	C357.459869,118.732018 357.013519,106.963242 347.360321,98.932137 
	C346.299225,103.159340 345.378265,106.828354 344.379852,110.805832 
	C337.130951,106.517624 337.620239,96.419312 330.728821,94.071663 
	C329.274689,99.448822 328.034790,104.115631 326.706665,108.757172 
	C326.620148,109.059509 325.871582,109.289070 325.404999,109.348473 
	C318.606750,110.214165 311.909393,110.799850 305.410828,107.463013 
	C301.038940,105.218163 296.427826,103.332909 291.753204,101.810387 
	C285.785156,99.866592 282.789032,102.497879 283.028992,108.980690 
	C284.501373,109.050224 285.977966,109.119965 287.768860,109.204544 
	C287.768860,110.542534 287.768860,111.710220 287.768860,112.484917 
	C298.688049,116.023621 308.745056,119.928093 313.746979,131.623688 
	C310.120483,133.448105 306.558838,133.129166 302.943115,131.695343 
	C302.259003,131.424072 301.606598,130.951492 300.904938,130.869904 
	C299.180420,130.669373 297.435730,130.642487 295.699158,130.545761 
	C291.853394,131.880035 291.661407,131.840134 290.160400,127.811630 
	C286.014008,130.692444 284.875519,128.303009 284.335022,124.111534 
	C283.058350,125.807251 281.385529,127.985855 281.915009,128.931900 
	C283.227814,131.277634 285.235687,134.227463 287.523468,134.837372 
	C293.085388,136.320160 298.989655,136.466568 304.706818,137.440262 
	C307.767365,137.961517 310.711609,139.137222 313.735962,139.909348 
	C315.642212,140.396042 317.627594,141.099518 319.528137,140.971725 
	C323.413666,140.710495 329.722961,143.864273 330.806641,147.721909 
	C332.032104,152.084259 329.895355,155.552338 326.137268,157.781097 
	C324.327301,158.854538 322.212067,159.548889 320.144836,160.013794 
	C318.189789,160.453476 316.116638,160.368088 313.446716,160.560349 
	C316.606506,163.536041 319.201935,165.980240 321.894653,168.516098 
	C314.175903,172.898636 306.788818,171.491776 299.220184,168.622635 
	C299.025879,170.641464 298.867401,172.287949 298.694733,174.081924 
	C290.031799,170.264099 290.031799,170.264099 279.190338,156.284348 
	C278.706512,157.983643 278.254517,159.571167 277.639130,161.732513 
	C270.332214,153.710953 268.572174,144.271576 267.129578,134.479340 
	C265.824738,135.347137 264.918671,135.949738 263.540344,136.866409 
	C263.592194,120.580490 266.288666,106.266708 281.470337,97.546875 
	C279.897369,96.936424 278.723541,96.480873 277.377655,95.958542 
	C302.840027,74.017181 342.999298,76.018944 361.072296,103.867744 
	C359.613586,104.019180 358.277222,104.157913 356.814484,104.309769 
	C360.993042,109.231567 364.907928,113.842758 368.822815,118.453941 
	C369.176880,118.370041 369.530975,118.286140 369.885040,118.202240 
	C369.292236,111.731598 368.699463,105.260948 368.044220,98.108650 
	C365.980011,99.386124 364.860779,100.078781 363.691284,100.802559 
	C361.644165,97.330193 359.973633,94.082710 357.922913,91.096298 
	C351.948822,82.396347 341.874176,79.473076 333.520569,74.127342 
	C333.066986,73.837090 331.681976,74.041672 331.656647,74.182579 
	C330.906433,78.350555 328.628845,75.297417 327.239624,74.998833 
	C320.395782,73.527885 313.697327,71.004242 306.418579,72.276688 
	C307.213440,73.139992 307.804077,73.781471 308.635681,74.684700 
	C284.392731,75.043922 266.741425,78.549820 258.009796,84.540459 
	C260.818512,86.146477 263.722473,87.806969 266.713257,89.517120 
	C258.575867,94.513725 251.325974,100.173058 246.669846,109.132790 
	C249.006454,109.132790 250.882812,109.132790 253.034851,109.132790 
	C240.811783,130.259338 242.799713,151.912094 248.762619,174.493103 
	C251.102829,171.861908 252.877960,169.866043 254.800140,167.704865 
	C262.268890,192.051315 276.345154,201.017319 286.003815,200.864380 
	C285.636444,198.741699 285.254089,196.532303 284.650635,193.045364 
	C298.197998,202.975571 312.158417,203.492905 326.789124,201.797638 
	C325.308533,199.476059 323.995056,197.416565 323.102631,194.868958 
	C323.229614,194.695618 323.356567,194.522278 324.299744,194.406998 
M152.189972,103.772728 
	C151.476105,103.805450 150.762253,103.838173 149.963409,103.148079 
	C146.413727,91.916512 138.050278,85.525055 127.093956,84.231194 
	C114.955307,82.797722 102.443466,82.318924 90.310165,83.551277 
	C71.060036,85.506470 62.156143,96.746254 62.155968,116.144272 
	C62.155846,129.455582 62.102406,142.767151 62.170334,156.078110 
	C62.245464,170.801376 71.608940,183.182449 86.154419,184.680801 
	C99.765823,186.082932 113.708855,185.899796 127.364662,184.744461 
	C139.325211,183.732574 148.856995,173.815323 150.676056,163.880966 
	C151.126923,163.890396 151.577774,163.899811 152.157257,164.628998 
	C156.075424,176.620956 164.591583,183.741302 176.806595,184.956665 
	C188.504501,186.120605 200.453094,186.494537 212.151047,185.523575 
	C229.745453,184.063171 241.491989,172.098633 240.602890,153.018784 
	C239.991196,139.891693 240.511688,126.712975 240.478836,113.557457 
	C240.438736,97.495270 231.243073,85.959366 215.173477,84.082115 
	C203.512192,82.719826 191.542801,82.551056 179.832443,83.444511 
	C167.239731,84.405273 156.877731,90.027428 152.189972,103.772728 
M455.603882,175.060120 
	C457.732697,171.660080 459.861511,168.260040 462.118805,164.654785 
	C462.717499,165.403397 463.123383,165.724152 463.284698,166.139816 
	C467.692505,177.498093 476.261169,184.088226 488.054077,185.072052 
	C499.944702,186.064011 512.105225,186.630020 523.903870,185.269562 
	C542.485901,183.126953 551.153076,172.035172 551.153442,153.379776 
	C551.153625,140.048904 551.177368,126.717987 551.147217,113.387192 
	C551.111450,97.610695 541.915466,85.977745 526.144775,84.126656 
	C514.313599,82.737961 502.174438,82.607162 490.282928,83.459213 
	C476.834351,84.422829 466.770233,91.263344 462.579346,104.935760 
	C462.528168,105.102753 462.083496,105.149139 461.822021,105.250687 
	C455.622375,91.085968 449.304321,85.156044 434.784058,83.670418 
	C423.265015,82.491859 411.382782,82.338753 399.914368,83.763496 
	C381.328217,86.072495 372.846832,97.015701 372.846558,115.812538 
	C372.846344,128.976776 372.825806,142.141052 372.851837,155.305222 
	C372.883301,171.231720 382.278717,183.093246 398.091278,184.889908 
	C409.929810,186.235001 422.020050,186.015060 433.963135,185.563965 
	C442.094452,185.256851 449.427979,181.813614 455.603882,175.060120 
z"/>
<path fill="#020202" opacity="1.000000" stroke="none" 
	d="
M455.351685,175.317093 
	C449.427979,181.813614 442.094452,185.256851 433.963135,185.563965 
	C422.020050,186.015060 409.929810,186.235001 398.091278,184.889908 
	C382.278717,183.093246 372.883301,171.231720 372.851837,155.305222 
	C372.825806,142.141052 372.846344,128.976776 372.846558,115.812538 
	C372.846832,97.015701 381.328217,86.072495 399.914368,83.763496 
	C411.382782,82.338753 423.265015,82.491859 434.784058,83.670418 
	C449.304321,85.156044 455.622375,91.085968 461.822266,105.251251 
	C462.083496,105.149139 462.528168,105.102753 462.579346,104.935760 
	C466.770233,91.263344 476.834351,84.422829 490.282928,83.459213 
	C502.174438,82.607162 514.313599,82.737961 526.144775,84.126656 
	C541.915466,85.977745 551.111450,97.610695 551.147217,113.387192 
	C551.177368,126.717987 551.153625,140.048904 551.153442,153.379776 
	C551.153076,172.035172 542.485901,183.126953 523.903870,185.269562 
	C512.105225,186.630020 499.944702,186.064011 488.054077,185.072052 
	C476.261169,184.088226 467.692505,177.498093 463.284698,166.139816 
	C463.123383,165.724152 462.717499,165.403397 462.118805,164.654785 
	C459.861511,168.260040 457.732697,171.660080 455.351685,175.317093 
M404.729218,151.995392 
	C416.836914,151.995392 428.944611,151.995392 441.009308,151.995392 
	C441.009308,149.078888 441.009308,146.783127 441.009308,143.838409 
	C431.001587,143.838409 421.134369,143.838409 411.413269,143.838409 
	C411.413269,137.244308 411.413269,131.304108 411.413269,124.948273 
	C419.750214,124.948273 427.845062,124.948273 436.097351,124.948273 
	C436.097351,122.131119 436.097351,119.739975 436.097351,116.936508 
	C427.774841,116.936508 419.678894,116.936508 411.429321,116.936508 
	C411.429321,110.457230 411.429321,104.395485 411.429321,97.859604 
	C421.103424,97.859604 430.520447,97.859604 439.881958,97.859604 
	C439.881958,94.963226 439.881958,92.548241 439.881958,90.074722 
	C427.522644,90.074722 415.445923,90.074722 403.171509,90.074722 
	C403.090668,90.954475 402.982239,91.586273 402.981903,92.218147 
	C402.971710,111.047356 402.959290,129.876602 403.005249,148.705704 
	C403.007843,149.766388 403.505096,150.825867 404.729218,151.995392 
M503.798370,90.798523 
	C501.210632,90.377457 498.622925,89.956398 495.859009,89.506660 
	C495.859009,110.807503 495.859009,131.196854 495.859009,151.736557 
	C506.288269,151.736557 516.515503,151.736557 526.744873,151.736557 
	C526.744873,149.068695 526.744873,146.680038 526.744873,143.924393 
	C519.042419,143.924393 511.620911,143.924393 503.854218,143.924393 
	C503.854218,126.284134 503.854218,109.022438 503.798370,90.798523 
z"/>
<path fill="#010101" opacity="1.000000" stroke="none" 
	d="
M150.029160,164.081207 
	C148.856995,173.815323 139.325211,183.732574 127.364662,184.744461 
	C113.708855,185.899796 99.765823,186.082932 86.154419,184.680801 
	C71.608940,183.182449 62.245464,170.801376 62.170334,156.078110 
	C62.102406,142.767151 62.155846,129.455582 62.155968,116.144272 
	C62.156143,96.746254 71.060036,85.506470 90.310165,83.551277 
	C102.443466,82.318924 114.955307,82.797722 127.093956,84.231194 
	C138.050278,85.525055 146.413727,91.916512 149.997498,103.877762 
	C150.501587,105.263092 150.971588,105.918747 151.441589,106.574402 
	C151.896851,105.501060 152.352112,104.427727 152.807373,103.354385 
	C156.877731,90.027428 167.239731,84.405273 179.832443,83.444511 
	C191.542801,82.551056 203.512192,82.719826 215.173477,84.082115 
	C231.243073,85.959366 240.438736,97.495270 240.478836,113.557457 
	C240.511688,126.712975 239.991196,139.891693 240.602890,153.018784 
	C241.491989,172.098633 229.745453,184.063171 212.151047,185.523575 
	C200.453094,186.494537 188.504501,186.120605 176.806595,184.956665 
	C164.591583,183.741302 156.075424,176.620956 152.042679,163.972168 
	C151.496628,163.034103 151.065155,162.752884 150.633682,162.471649 
	C150.432175,163.008163 150.230667,163.544693 150.029160,164.081207 
M98.665771,129.014542 
	C106.756271,129.014542 114.846771,129.014542 122.965027,129.014542 
	C123.763344,137.076004 124.493065,144.444824 125.207428,151.658524 
	C128.457230,151.658524 131.191238,151.658524 134.113449,151.658524 
	C132.203156,133.762634 130.340027,116.238503 128.457092,98.716499 
	C127.966904,94.154984 125.241203,91.215019 120.865189,90.968338 
	C113.293854,90.541557 105.671761,90.565346 98.092239,90.892761 
	C93.084183,91.109085 90.581535,94.406891 90.073463,99.373878 
	C89.193230,107.979050 88.161766,116.568634 87.225769,125.168243 
	C86.263702,134.007370 85.339973,142.850693 84.406319,151.627716 
	C87.848030,151.627716 90.732483,151.627716 93.623611,151.627716 
	C94.183205,144.954742 94.599037,138.650452 95.336220,132.383987 
	C95.477272,131.184982 96.884239,130.134903 98.665771,129.014542 
M221.582626,113.508842 
	C221.393692,108.356750 221.970245,103.010696 220.732208,98.124420 
	C219.974884,95.135452 216.653229,90.872421 214.101410,90.586235 
	C201.264236,89.146538 188.308014,88.973381 175.519196,91.603256 
	C175.519196,111.934700 175.519196,131.852173 175.519196,151.684692 
	C178.384979,151.684692 180.954254,151.684692 183.847137,151.684692 
	C183.847137,133.891373 183.847137,116.441109 183.847137,97.873817 
	C189.264832,97.873817 194.365952,97.873817 199.467072,97.873817 
	C213.110214,97.873817 213.110229,97.873817 213.110229,111.314651 
	C213.110245,124.764946 213.110229,138.215240 213.110229,151.729538 
	C216.154968,151.729538 218.710129,151.729538 221.582565,151.729538 
	C221.582565,139.122681 221.582565,126.814301 221.582626,113.508842 
M151.009689,157.620316 
	C151.133072,158.085770 151.256470,158.551239 151.729584,160.335922 
	C151.729584,143.003113 151.729584,127.011101 151.729584,111.019096 
	C151.487686,111.017601 151.245773,111.016106 151.003876,111.014603 
	C151.003876,126.276497 151.003876,141.538391 151.009689,157.620316 
z"/>
<path fill="#060606" opacity="1.000000" stroke="none" 
	d="
M322.681610,195.357071 
	C323.995056,197.416565 325.308533,199.476059 326.789124,201.797638 
	C312.158417,203.492905 298.197998,202.975571 284.650635,193.045364 
	C285.254089,196.532303 285.636444,198.741699 286.003815,200.864380 
	C276.345154,201.017319 262.268890,192.051315 254.800140,167.704865 
	C252.877960,169.866043 251.102829,171.861908 248.762619,174.493103 
	C242.799713,151.912094 240.811783,130.259338 253.034851,109.132790 
	C250.882812,109.132790 249.006454,109.132790 246.669846,109.132790 
	C251.325974,100.173058 258.575867,94.513725 266.713257,89.517120 
	C263.722473,87.806969 260.818512,86.146477 258.009796,84.540459 
	C266.741425,78.549820 284.392731,75.043922 308.635681,74.684700 
	C307.804077,73.781471 307.213440,73.139992 306.418579,72.276688 
	C313.697327,71.004242 320.395782,73.527885 327.239624,74.998833 
	C328.628845,75.297417 330.906433,78.350555 331.656647,74.182579 
	C331.681976,74.041672 333.066986,73.837090 333.520569,74.127342 
	C341.874176,79.473076 351.948822,82.396347 357.922913,91.096298 
	C359.973633,94.082710 361.644165,97.330193 363.691284,100.802559 
	C364.860779,100.078781 365.980011,99.386124 368.044220,98.108650 
	C368.699463,105.260948 369.292236,111.731598 369.885040,118.202240 
	C369.530975,118.286140 369.176880,118.370041 368.822815,118.453941 
	C364.907928,113.842758 360.993042,109.231567 356.814484,104.309769 
	C358.277222,104.157913 359.613586,104.019180 361.072296,103.867744 
	C342.999298,76.018944 302.840027,74.017181 277.377655,95.958542 
	C278.723541,96.480873 279.897369,96.936424 281.470337,97.546875 
	C266.288666,106.266708 263.592194,120.580490 263.540344,136.866409 
	C264.918671,135.949738 265.824738,135.347137 267.129578,134.479340 
	C268.572174,144.271576 270.332214,153.710953 277.639130,161.732513 
	C278.254517,159.571167 278.706512,157.983643 279.190338,156.284348 
	C290.031799,170.264099 290.031799,170.264099 298.694733,174.081924 
	C298.867401,172.287949 299.025879,170.641464 299.220184,168.622635 
	C306.788818,171.491776 314.175903,172.898636 321.894653,168.516098 
	C319.201935,165.980240 316.606506,163.536041 313.446716,160.560349 
	C316.116638,160.368088 318.189789,160.453476 320.144836,160.013794 
	C322.212067,159.548889 324.327301,158.854538 326.137268,157.781097 
	C329.895355,155.552338 332.032104,152.084259 330.806641,147.721909 
	C329.722961,143.864273 323.413666,140.710495 319.528137,140.971725 
	C317.627594,141.099518 315.642212,140.396042 313.735962,139.909348 
	C310.711609,139.137222 307.767365,137.961517 304.706818,137.440262 
	C298.989655,136.466568 293.085388,136.320160 287.523468,134.837372 
	C285.235687,134.227463 283.227814,131.277634 281.915009,128.931900 
	C281.385529,127.985855 283.058350,125.807251 284.335022,124.111534 
	C284.875519,128.303009 286.014008,130.692444 290.160400,127.811630 
	C291.661407,131.840134 291.853394,131.880035 295.699158,130.545761 
	C297.435730,130.642487 299.180420,130.669373 300.904938,130.869904 
	C301.606598,130.951492 302.259003,131.424072 302.943115,131.695343 
	C306.558838,133.129166 310.120483,133.448105 313.746979,131.623688 
	C308.745056,119.928093 298.688049,116.023621 287.768860,112.484917 
	C287.768860,111.710220 287.768860,110.542534 287.768860,109.204544 
	C285.977966,109.119965 284.501373,109.050224 283.028992,108.980690 
	C282.789032,102.497879 285.785156,99.866592 291.753204,101.810387 
	C296.427826,103.332909 301.038940,105.218163 305.410828,107.463013 
	C311.909393,110.799850 318.606750,110.214165 325.404999,109.348473 
	C325.871582,109.289070 326.620148,109.059509 326.706665,108.757172 
	C328.034790,104.115631 329.274689,99.448822 330.728821,94.071663 
	C337.620239,96.419312 337.130951,106.517624 344.379852,110.805832 
	C345.378265,106.828354 346.299225,103.159340 347.360321,98.932137 
	C357.013519,106.963242 357.459869,118.732018 359.410614,131.163177 
	C361.505707,128.138123 362.905762,126.116631 364.305817,124.095139 
	C364.903046,124.226936 365.500275,124.358734 366.097504,124.490532 
	C365.048737,133.845856 363.999939,143.201172 362.936371,152.688385 
	C364.432678,152.216812 366.787018,151.474838 369.150024,150.730133 
	C370.542267,163.358521 362.175934,176.459442 347.977875,183.705414 
	C350.893188,184.911972 353.588196,186.027359 356.743042,187.333084 
	C347.184631,196.415024 336.150330,197.202789 323.602661,194.229218 
	C322.295898,194.100296 321.686218,194.149155 320.101898,194.276138 
	C321.561523,194.887741 322.121552,195.122406 322.681610,195.357071 
z"/>
<path fill="#030303" opacity="1.000000" stroke="none" 
	d="
M152.498672,103.563553 
	C152.352112,104.427727 151.896851,105.501060 151.441589,106.574402 
	C150.971588,105.918747 150.501587,105.263092 150.039978,104.239166 
	C150.762253,103.838173 151.476105,103.805450 152.498672,103.563553 
z"/>
<path fill="#030303" opacity="1.000000" stroke="none" 
	d="
M150.352600,163.981079 
	C150.230667,163.544693 150.432175,163.008163 150.633682,162.471649 
	C151.065155,162.752884 151.496628,163.034103 151.978363,163.612274 
	C151.577774,163.899811 151.126923,163.890396 150.352600,163.981079 
z"/>
<path fill="#FBFBFB" opacity="1.000000" stroke="none" 
	d="
M404.250671,151.940643 
	C403.505096,150.825867 403.007843,149.766388 403.005249,148.705704 
	C402.959290,129.876602 402.971710,111.047356 402.981903,92.218147 
	C402.982239,91.586273 403.090668,90.954475 403.171509,90.074722 
	C415.445923,90.074722 427.522644,90.074722 439.881958,90.074722 
	C439.881958,92.548241 439.881958,94.963226 439.881958,97.859604 
	C430.520447,97.859604 421.103424,97.859604 411.429321,97.859604 
	C411.429321,104.395485 411.429321,110.457230 411.429321,116.936508 
	C419.678894,116.936508 427.774841,116.936508 436.097351,116.936508 
	C436.097351,119.739975 436.097351,122.131119 436.097351,124.948273 
	C427.845062,124.948273 419.750214,124.948273 411.413269,124.948273 
	C411.413269,131.304108 411.413269,137.244308 411.413269,143.838409 
	C421.134369,143.838409 431.001587,143.838409 441.009308,143.838409 
	C441.009308,146.783127 441.009308,149.078888 441.009308,151.995392 
	C428.944611,151.995392 416.836914,151.995392 404.250671,151.940643 
z"/>
<path fill="#F9F9F9" opacity="1.000000" stroke="none" 
	d="
M503.826294,91.279633 
	C503.854218,109.022438 503.854218,126.284134 503.854218,143.924393 
	C511.620911,143.924393 519.042419,143.924393 526.744873,143.924393 
	C526.744873,146.680038 526.744873,149.068695 526.744873,151.736557 
	C516.515503,151.736557 506.288269,151.736557 495.859009,151.736557 
	C495.859009,131.196854 495.859009,110.807503 495.859009,89.506660 
	C498.622925,89.956398 501.210632,90.377457 503.826294,91.279633 
z"/>
<path fill="#F6F6F6" opacity="1.000000" stroke="none" 
	d="
M98.186478,129.015320 
	C96.884239,130.134903 95.477272,131.184982 95.336220,132.383987 
	C94.599037,138.650452 94.183205,144.954742 93.623611,151.627716 
	C90.732483,151.627716 87.848030,151.627716 84.406319,151.627716 
	C85.339973,142.850693 86.263702,134.007370 87.225769,125.168243 
	C88.161766,116.568634 89.193230,107.979050 90.073463,99.373878 
	C90.581535,94.406891 93.084183,91.109085 98.092239,90.892761 
	C105.671761,90.565346 113.293854,90.541557 120.865189,90.968338 
	C125.241203,91.215019 127.966904,94.154984 128.457092,98.716499 
	C130.340027,116.238503 132.203156,133.762634 134.113449,151.658524 
	C131.191238,151.658524 128.457230,151.658524 125.207428,151.658524 
	C124.493065,144.444824 123.763344,137.076004 122.965027,129.014542 
	C114.846771,129.014542 106.756271,129.014542 98.186478,129.015320 
M98.223900,101.919731 
	C97.623550,108.436539 97.023209,114.953346 96.412453,121.583099 
	C105.316566,121.583099 113.574203,121.583099 122.329994,121.583099 
	C121.479355,113.951897 120.659180,106.593948 119.781960,98.724335 
	C113.326088,98.724335 107.105675,98.633293 100.894135,98.827026 
	C100.009399,98.854622 99.167740,100.263374 98.223900,101.919731 
z"/>
<path fill="#EEEEEE" opacity="1.000000" stroke="none" 
	d="
M221.582596,114.007385 
	C221.582565,126.814301 221.582565,139.122681 221.582565,151.729538 
	C218.710129,151.729538 216.154968,151.729538 213.110229,151.729538 
	C213.110229,138.215240 213.110245,124.764946 213.110229,111.314651 
	C213.110229,97.873817 213.110214,97.873817 199.467072,97.873817 
	C194.365952,97.873817 189.264832,97.873817 183.847137,97.873817 
	C183.847137,116.441109 183.847137,133.891373 183.847137,151.684692 
	C180.954254,151.684692 178.384979,151.684692 175.519196,151.684692 
	C175.519196,131.852173 175.519196,111.934700 175.519196,91.603256 
	C188.308014,88.973381 201.264236,89.146538 214.101410,90.586235 
	C216.653229,90.872421 219.974884,95.135452 220.732208,98.124420 
	C221.970245,103.010696 221.393692,108.356750 221.582596,114.007385 
z"/>
<path fill="#242424" opacity="1.000000" stroke="none" 
	d="
M151.006775,157.210297 
	C151.003876,141.538391 151.003876,126.276497 151.003876,111.014603 
	C151.245773,111.016106 151.487686,111.017601 151.729584,111.019096 
	C151.729584,127.011101 151.729584,143.003113 151.729584,160.335922 
	C151.256470,158.551239 151.133072,158.085770 151.006775,157.210297 
z"/>
<path fill="#FEFEFE" opacity="1.000000" stroke="none" 
	d="
M322.892120,195.113007 
	C322.121552,195.122406 321.561523,194.887741 320.101898,194.276138 
	C321.686218,194.149155 322.295898,194.100296 323.194550,194.200180 
	C323.356567,194.522278 323.229614,194.695618 322.892120,195.113007 
z"/>
<path fill="#070707" opacity="1.000000" stroke="none" 
	d="
M98.265015,101.476318 
	C99.167740,100.263374 100.009399,98.854622 100.894135,98.827026 
	C107.105675,98.633293 113.326088,98.724335 119.781960,98.724335 
	C120.659180,106.593948 121.479355,113.951897 122.329994,121.583099 
	C113.574203,121.583099 105.316566,121.583099 96.412453,121.583099 
	C97.023209,114.953346 97.623550,108.436539 98.265015,101.476318 
z"/>
</svg>